HIERARCHY
ROOT joint_Root
{
	OFFSET 0.0 0.0 0.0
	CHANNELS 6 Xposition Yposition Zposition Zrotation Xrotation Yrotation 
	JOINT Hips
	{
		OFFSET -0.726466 93.3139 -2.00062
		CHANNELS 6 Xposition Yposition Zposition Zrotation Xrotation Yrotation 
		JOINT Spine
		{
			OFFSET 15.7357 0.0 0.0
			CHANNELS 6 Xposition Yposition Zposition Zrotation Xrotation Yrotation 
			JOINT Chest
			{
				OFFSET 8.98455 -0.406207 0.0
				CHANNELS 6 Xposition Yposition Zposition Zrotation Xrotation Yrotation 
				JOINT Neck
				{
					OFFSET 16.3773 0.0 0.0
					CHANNELS 6 Xposition Yposition Zposition Zrotation Xrotation Yrotation 
					JOINT Head
					{
						OFFSET 6.45672 0.0 0.0
						CHANNELS 6 Xposition Yposition Zposition Zrotation Xrotation Yrotation 
						End Site
						{
							OFFSET 0.0 0.0 0.0
						}
					}
				}
				JOINT Shoulder_L
				{
					OFFSET 12.9942 -0.242716 4.98039
					CHANNELS 6 Xposition Yposition Zposition Zrotation Xrotation Yrotation 
					JOINT UpperArm_L
					{
						OFFSET 5.34809 0.0 0.0
						CHANNELS 6 Xposition Yposition Zposition Zrotation Xrotation Yrotation 
						JOINT LowerArm_L
						{
							OFFSET 24.3286 1.87007e-05 0.0
							CHANNELS 6 Xposition Yposition Zposition Zrotation Xrotation Yrotation 
							JOINT Hand_L
							{
								OFFSET 22.2916 0.0 0.0
								CHANNELS 6 Xposition Yposition Zposition Zrotation Xrotation Yrotation 
								End Site
								{
									OFFSET 0.0 0.0 0.0
								}
							}
						}
					}
				}
				JOINT Shoulder_R
				{
					OFFSET 12.9945 -0.242716 -4.98039
					CHANNELS 6 Xposition Yposition Zposition Zrotation Xrotation Yrotation 
					JOINT UpperArm_R
					{
						OFFSET -5.34813 0.0 0.0
						CHANNELS 6 Xposition Yposition Zposition Zrotation Xrotation Yrotation 
						JOINT LowerArm_R
						{
							OFFSET -24.3289 0.000322201 0.0
							CHANNELS 6 Xposition Yposition Zposition Zrotation Xrotation Yrotation 
							JOINT Hand_R
							{
								OFFSET -22.2915 -0.000108084 0.0
								CHANNELS 6 Xposition Yposition Zposition Zrotation Xrotation Yrotation 
								End Site
								{
									OFFSET 0.0 0.0 0.0
								}
							}
						}
					}
				}
			}
		}
		JOINT UpperLeg_L
		{
			OFFSET -2.19248 -6.46944 0.0
			CHANNELS 6 Xposition Yposition Zposition Zrotation Xrotation Yrotation 
			JOINT LowerLeg_L
			{
				OFFSET 39.0811 0.0 -1.23785e-05
				CHANNELS 6 Xposition Yposition Zposition Zrotation Xrotation Yrotation 
				JOINT Foot_L
				{
					OFFSET 40.9854 0.0 -1.26872e-05
					CHANNELS 6 Xposition Yposition Zposition Zrotation Xrotation Yrotation 
					JOINT Toes_L
					{
						OFFSET 11.7543 0.0 0.0
						CHANNELS 6 Xposition Yposition Zposition Zrotation Xrotation Yrotation 
						End Site
						{
							OFFSET 0.0 0.0 0.0
						}
					}
				}
			}
		}
		JOINT UpperLeg_R
		{
			OFFSET -2.19251 6.46944 0.0
			CHANNELS 6 Xposition Yposition Zposition Zrotation Xrotation Yrotation 
			JOINT LowerLeg_R
			{
				OFFSET -39.0811 -0.00228153 -0.0401928
				CHANNELS 6 Xposition Yposition Zposition Zrotation Xrotation Yrotation 
				JOINT Foot_R
				{
					OFFSET -40.9854 0.0 0.0
					CHANNELS 6 Xposition Yposition Zposition Zrotation Xrotation Yrotation 
					JOINT Toes_R
					{
						OFFSET -11.7543 0.0 0.0
						CHANNELS 6 Xposition Yposition Zposition Zrotation Xrotation Yrotation 
						End Site
						{
							OFFSET 0.0 0.0 0.0
						}
					}
				}
			}
		}
	}
}
MOTION
Frames:	4
Frame Time:	0.0333333
0.000000 0.000000 0.000000 0.000000 0.000000 -0.000000 -4.951370 91.351800 502.269000 -86.604100 -2.340300 -178.757000 15.735700 0.000005 -0.000001 76.989900 84.015600 -75.801100 8.984550 -0.406207 -0.000000 3.928650 -2.730410 2.469000 16.377300 -0.000001 -0.000001 3.160350 -2.054140 1.916190 6.456720 -0.000001 -0.000000 5.962030 0.388326 -3.199060 12.994200 -0.242716 4.980390 -89.680300 -1.083470 -73.555900 5.348090 -0.000007 -0.000001 -54.105100 24.463200 -43.053000 24.328600 0.000019 0.000005 1.471030 1.927630 -37.358100 22.291600 -0.000001 0.000005 11.977700 5.527250 -7.672730 12.994500 -0.242716 -4.980390 88.042400 5.885400 -71.564700 -5.348130 -0.000001 -0.000004 -71.213900 20.963000 1.739040 -24.328900 0.000322 -0.000009 1.651950 16.492500 -5.804310 -22.291500 -0.000108 -0.000004 10.075300 5.252200 1.374990 -2.192480 -6.469440 -0.000000 -177.502000 -11.021400 1.640400 39.081100 -0.000007 -0.000012 -0.059749 0.152787 21.358600 40.985400 -0.000006 -0.000013 4.748880 6.379020 -72.733700 11.754300 -0.000000 0.000003 -0.000012 -0.000157 -16.583700 -2.192510 6.469440 -0.000001 -179.016000 10.009900 156.622000 -39.081100 -0.002282 -0.040193 0.021250 -0.025301 35.368300 -40.985400 0.000008 0.000006 0.132852 -6.041150 -55.167500 -11.754300 -0.000006 -0.000006 -0.017742 -0.154445 -22.879200
0.000000 0.000000 0.000000 0.000000 0.000000 -0.000000 -4.933310 91.205400 500.240000 -86.656400 -2.477000 -179.389000 15.735700 0.000005 -0.000001 74.273000 84.128000 -73.070500 8.984550 -0.406207 -0.000000 3.578020 -3.223200 2.503510 16.377300 -0.000001 -0.000001 3.136220 -2.082300 1.915090 6.456720 -0.000001 -0.000000 5.954840 0.796982 -3.311160 12.994200 -0.242716 4.980390 -89.629900 -1.274800 -73.807400 5.348090 -0.000007 -0.000001 -53.743000 22.571300 -44.255300 24.328600 0.000019 0.000005 1.273320 1.604160 -38.449600 22.291600 -0.000001 0.000005 13.064600 5.527790 -7.698640 12.994500 -0.242716 -4.980390 88.026300 5.799060 -71.166900 -5.348130 -0.000001 -0.000004 -70.916100 20.855600 2.952830 -24.328900 0.000322 -0.000009 1.773500 16.250800 -6.317630 -22.291500 -0.000108 -0.000004 10.394900 5.253910 1.329100 -2.192480 -6.469440 -0.000000 -177.253000 -11.020800 3.657470 39.081100 -0.000007 -0.000012 -0.050232 0.145090 19.096500 40.985400 -0.000006 -0.000013 4.564190 6.909790 -73.097100 11.754300 -0.000000 0.000003 -0.000006 -0.000081 -16.580700 -2.192510 6.469440 -0.000001 -177.812000 11.569600 156.709000 -39.081100 -0.002282 -0.040193 0.014474 -0.024939 24.109400 -40.985400 0.000008 0.000006 -0.649845 -2.542280 -52.207400 -11.754300 -0.000006 -0.000006 -0.017800 -0.154781 -22.893000
0.000000 0.000000 0.000000 0.000000 0.000000 -0.000000 -4.870710 90.858600 497.914000 -87.052900 -2.470580 179.964000 15.735700 0.000005 -0.000001 71.927300 84.276200 -70.839200 8.984550 -0.406207 -0.000000 3.157190 -3.591280 2.273560 16.377300 -0.000001 -0.000001 3.141130 -2.072960 1.863760 6.456720 -0.000001 -0.000000 5.920410 1.100570 -3.383330 12.994200 -0.242716 4.980390 -89.581100 -1.444690 -73.829000 5.348090 -0.000007 -0.000001 -53.665900 21.376700 -44.682800 24.328600 0.000019 0.000005 0.993764 1.217640 -39.225500 22.291600 -0.000001 0.000005 13.558200 5.534170 -7.979220 12.994500 -0.242716 -4.980390 88.020200 5.702460 -70.817400 -5.348130 -0.000001 -0.000004 -70.848500 20.345400 3.799820 -24.328900 0.000322 -0.000009 1.938080 16.008400 -6.999130 -22.291500 -0.000108 -0.000004 10.545400 5.256960 1.248220 -2.192480 -6.469440 -0.000000 -177.325000 -11.168900 5.843000 39.081100 -0.000007 -0.000012 -0.028559 0.093418 16.998800 40.985400 -0.000006 -0.000013 4.956330 7.134740 -73.868900 11.754300 -0.000000 0.000003 -0.078444 -0.093883 -16.516700 -2.192510 6.469440 -0.000001 -176.341000 14.232300 157.396000 -39.081100 -0.002282 -0.040193 0.013189 -0.043053 12.893900 -40.985400 0.000008 0.000006 -3.336350 1.655950 -50.187600 -11.754300 -0.000006 -0.000006 -0.017430 -0.152615 -22.803900
0.000000 0.000000 0.000000 0.000000 0.000000 -0.000000 -4.694150 90.348700 495.270000 -87.389600 -2.381900 179.427000 15.735700 0.000005 -0.000001 69.906400 84.436500 -68.918000 8.984550 -0.406207 -0.000000 2.723400 -3.862810 2.067390 16.377300 -0.000001 -0.000001 3.111060 -1.981920 1.811960 6.456720 -0.000001 -0.000000 6.043720 1.259260 -3.481070 12.994200 -0.242716 4.980390 -89.585700 -1.415500 -73.683700 5.348090 -0.000007 -0.000001 -53.207300 21.155900 -44.464000 24.328600 0.000019 0.000005 0.665516 0.799446 -39.777200 22.291600 -0.000001 0.000005 13.895100 5.542180 -8.342130 12.994500 -0.242716 -4.980390 87.995200 5.740480 -70.712000 -5.348130 -0.000001 -0.000004 -70.898700 19.778100 4.374480 -24.328900 0.000322 -0.000009 2.047210 15.504100 -7.620610 -22.291500 -0.000108 -0.000004 10.681300 5.263360 1.077040 -2.192480 -6.469440 -0.000000 -176.862000 -12.089200 7.156650 39.081100 -0.000007 -0.000012 -0.025901 0.083919 17.152100 40.985400 -0.000006 -0.000013 4.502160 8.452400 -74.424000 11.754300 -0.000000 0.000003 -0.162362 -0.220536 -17.786200 -2.192510 6.469440 -0.000001 -174.394000 16.828600 156.593000 -39.081100 -0.002282 -0.040193 0.008735 -0.046843 6.563770 -40.985400 0.000008 0.000006 -6.109290 3.724750 -48.393600 -11.754300 -0.000006 -0.000006 -0.017813 -0.154860 -22.896300
